# xmcd
#
# Track frame offsets: 
#        150
#        14820
#        28506
#        48825
#        59578
#        74608
#        90623
#        107150
#        123426
#        140781
#        154364
#        173191
#        190206
#        206070
#        220001
#        231634
#        248235
#        266247
#
# Disc length: 3815 seconds
#
# Revision: 2
# Processed by: cddbd v1.5.1PL2 Copyright (c) Steve Scherf et al.
# Submitted via: ExactAudioCopy v0.95b3
#
DISCID=1f0ee512
DTITLE=Various Artist - Country Heat 2001
DYEAR=2000
DGENRE=Country
TTITLE0=Jo Dee Messina - I'm Alright
TTITLE1=Tim McGraw - She Never Lets It Go to Her Heart
TTITLE2=Alan Jackson - The Blues Man
TTITLE3=Diamond Rio - Unbelievable
TTITLE4=Steve Wariner - I'm Already Taken
TTITLE5=Lonestar - Smile
TTITLE6=Keith Urban - It's a Love Thing
TTITLE7=Sara Evans - No Place That Far
TTITLE8=Kenny Chesney - You Had Me from Hello
TTITLE9=Brad Paisley - Holdin' On to You
TTITLE10=Pam Tillis - After a Kiss
TTITLE11=Prairie Oyster - One of Those Nights
TTITLE12=Andy Griggs - You Won't Ever Be Lonely
TTITLE13=Jim Witter - Tough as a Pickup Truck
TTITLE14=Julian Austin - Little Ol' Kisses (Live)
TTITLE15=Michelle Wright - When I Found You
TTITLE16=Lorrie Morgan - To Get to You
TTITLE17=Phil Vassar, Warren Bros., Carolyn Dawn Johnson - Preview of 
TTITLE17=Just, Another Day in Paradise, Move On
EXTD=
EXTT0=
EXTT1=
EXTT2=
EXTT3=
EXTT4=
EXTT5=
EXTT6=
EXTT7=
EXTT8=
EXTT9=
EXTT10=
EXTT11=
EXTT12=
EXTT13=
EXTT14=
EXTT15=
EXTT16=
EXTT17=
PLAYORDER=
